<?xml version="1.0" encoding="UTF-8" standalone="no"?>
<!-- Created with Inkscape (http://www.inkscape.org/) -->
<svg
   xmlns:dc="http://purl.org/dc/elements/1.1/"
   xmlns:cc="http://creativecommons.org/ns#"
   xmlns:rdf="http://www.w3.org/1999/02/22-rdf-syntax-ns#"
   xmlns:svg="http://www.w3.org/2000/svg"
   xmlns="http://www.w3.org/2000/svg"
   xmlns:xlink="http://www.w3.org/1999/xlink"
   xmlns:sodipodi="http://sodipodi.sourceforge.net/DTD/sodipodi-0.dtd"
   xmlns:inkscape="http://www.inkscape.org/namespaces/inkscape"
   width="210mm"
   height="297mm"
   id="svg2"
   sodipodi:version="0.32"
   inkscape:version="0.45+0.46pre0+devel"
   sodipodi:docname="waitbutton.svg"
   inkscape:output_extension="org.inkscape.output.svg.inkscape">
  <defs
     id="defs4">
    <inkscape:perspective
       sodipodi:type="inkscape:persp3d"
       inkscape:vp_x="-50 : 600 : 1"
       inkscape:vp_y="0 : 1000 : 0"
       inkscape:vp_z="700 : 600 : 1"
       inkscape:persp3d-origin="300 : 400 : 1"
       id="perspective10" />
    <linearGradient
       id="linearGradient3007">
      <stop
         style="stop-color:#161092;stop-opacity:1;"
         offset="0"
         id="stop3009" />
      <stop
         id="stop3015"
         offset="0.48477203"
         style="stop-color:#1c1b31;stop-opacity:0.91666669;" />
      <stop
         style="stop-color:#24198d;stop-opacity:0.45882353;"
         offset="0.65101826"
         id="stop3017" />
      <stop
         id="stop3019"
         offset="0.75317627"
         style="stop-color:#221780;stop-opacity:0.8888889;" />
      <stop
         style="stop-color:#804646;stop-opacity:0.82222223;"
         offset="0.79283476"
         id="stop3021" />
      <stop
         id="stop3023"
         offset="0.96875"
         style="stop-color:#ce1111;stop-opacity:0.94444442;" />
      <stop
         style="stop-color:#000000;stop-opacity:0;"
         offset="1"
         id="stop3011" />
    </linearGradient>
    <linearGradient
       id="linearGradient3075">
      <stop
         id="stop3085"
         offset="0"
         style="stop-color:#aaabda;stop-opacity:0.99215686;" />
      <stop
         style="stop-color:#224fdf;stop-opacity:0.98039216;"
         offset="0.20328076"
         id="stop3095" />
      <stop
         id="stop3097"
         offset="0.48649517"
         style="stop-color:#12101b;stop-opacity:0.97777778;" />
      <stop
         id="stop3079"
         offset="1"
         style="stop-color:#22222e;stop-opacity:0.98333335;" />
    </linearGradient>
    <inkscape:perspective
       id="perspective2408"
       inkscape:persp3d-origin="300 : 400 : 1"
       inkscape:vp_z="700 : 600 : 1"
       inkscape:vp_y="0 : 1000 : 0"
       inkscape:vp_x="-50 : 600 : 1"
       sodipodi:type="inkscape:persp3d" />
    <radialGradient
       fy="24.6226"
       fx="105.629"
       r="11.6412"
       cy="24.6226"
       cx="105.629"
       gradientUnits="userSpaceOnUse"
       id="radialGradient51911">
      <stop
         id="stop51913"
         style="stop-color:#84c225;stop-opacity:1"
         offset="0" />
      <stop
         id="stop51915"
         style="stop-color:#00923F"
         offset="1" />
    </radialGradient>
    <radialGradient
       id="id175"
       gradientUnits="userSpaceOnUse"
       cx="105.631"
       cy="22.4959"
       r="11.6412"
       fx="105.631"
       fy="22.4959">
      <stop
         offset="0"
         style="stop-color:#EA9088"
         id="stop3238" />
      <stop
         offset="1"
         style="stop-color:#DA251D"
         id="stop3240" />
    </radialGradient>
    <radialGradient
       inkscape:collect="always"
       xlink:href="#id148"
       id="radialGradient30982"
       gradientUnits="userSpaceOnUse"
       cx="105.427"
       cy="22.1767"
       fx="105.427"
       fy="22.1767"
       r="4.3717" />
    <radialGradient
       inkscape:collect="always"
       xlink:href="#id148"
       id="radialGradient30980"
       gradientUnits="userSpaceOnUse"
       cx="105.156"
       cy="23.8635"
       fx="105.156"
       fy="23.8635"
       r="5.2437" />
    <radialGradient
       id="id172"
       gradientUnits="userSpaceOnUse"
       cx="105.629"
       cy="24.6226"
       r="11.6412"
       fx="105.629"
       fy="24.6226">
      <stop
         offset="0"
         style="stop-color:#84C225"
         id="stop3223" />
      <stop
         offset="1"
         style="stop-color:#00923F"
         id="stop3225" />
    </radialGradient>
    <radialGradient
       id="id169"
       gradientUnits="userSpaceOnUse"
       xlink:href="#id148"
       cx="105.427"
       cy="22.1767"
       r="4.3717"
       fx="105.427"
       fy="22.1767" />
    <radialGradient
       id="id148"
       gradientUnits="userSpaceOnUse"
       cx="105.156"
       cy="23.8635"
       r="5.2437"
       fx="105.156"
       fy="23.8635">
      <stop
         offset="0"
         style="stop-color:white"
         id="stop3187" />
      <stop
         offset="1"
         style="stop-color:#1F1A17"
         id="stop3189" />
    </radialGradient>
    <radialGradient
       inkscape:collect="always"
       xlink:href="#id148"
       id="radialGradient30984"
       gradientUnits="userSpaceOnUse"
       cx="105.156"
       cy="23.8635"
       fx="105.156"
       fy="23.8635"
       r="5.2437" />
    <radialGradient
       inkscape:collect="always"
       xlink:href="#id148"
       id="radialGradient52010"
       gradientUnits="userSpaceOnUse"
       cx="105.156"
       cy="23.8635"
       fx="105.156"
       fy="23.8635"
       r="5.2437" />
    <radialGradient
       inkscape:collect="always"
       xlink:href="#id148"
       id="radialGradient52012"
       gradientUnits="userSpaceOnUse"
       cx="105.427"
       cy="22.1767"
       fx="105.427"
       fy="22.1767"
       r="4.3717" />
    <radialGradient
       inkscape:collect="always"
       xlink:href="#id175"
       id="radialGradient52014"
       gradientUnits="userSpaceOnUse"
       cx="105.631"
       cy="22.4959"
       fx="105.631"
       fy="22.4959"
       r="11.6412" />
    <radialGradient
       inkscape:collect="always"
       xlink:href="#id148"
       id="radialGradient52018"
       gradientUnits="userSpaceOnUse"
       cx="105.427"
       cy="22.1767"
       fx="105.427"
       fy="22.1767"
       r="4.3717"
       gradientTransform="matrix(41.915439,0,0,41.915439,-3902.9421,-439.64374)" />
    <radialGradient
       inkscape:collect="always"
       xlink:href="#id148"
       id="radialGradient52021"
       gradientUnits="userSpaceOnUse"
       cx="105.156"
       cy="23.8635"
       fx="105.156"
       fy="23.8635"
       r="5.2437"
       gradientTransform="matrix(41.915439,0,0,41.915439,-3902.9421,-439.64374)" />
    <radialGradient
       inkscape:collect="always"
       xlink:href="#id175"
       id="radialGradient52023"
       gradientUnits="userSpaceOnUse"
       cx="105.631"
       cy="22.495899"
       fx="105.631"
       fy="22.495899"
       r="11.6412" />
    <inkscape:perspective
       id="perspective2477"
       inkscape:persp3d-origin="300 : 400 : 1"
       inkscape:vp_z="700 : 600 : 1"
       inkscape:vp_y="0 : 1000 : 0"
       inkscape:vp_x="-50 : 600 : 1"
       sodipodi:type="inkscape:persp3d" />
    <linearGradient
       inkscape:collect="always"
       xlink:href="#id148"
       id="linearGradient2529"
       gradientUnits="userSpaceOnUse"
       gradientTransform="translate(-50.462873,-271.57735)"
       x1="297.14285"
       y1="587.7193"
       x2="335.71429"
       y2="646.64789" />
    <radialGradient
       inkscape:collect="always"
       xlink:href="#id148"
       id="radialGradient2532"
       gradientUnits="userSpaceOnUse"
       gradientTransform="matrix(25.948174,-0.5895983,0.5375499,23.657531,-2514.9681,-167.05)"
       cx="105.01967"
       cy="26.198133"
       fx="105.01967"
       fy="26.198133"
       r="5.2437" />
    <linearGradient
       inkscape:collect="always"
       xlink:href="#id148"
       id="linearGradient2537"
       gradientUnits="userSpaceOnUse"
       gradientTransform="translate(-51.763471,-455.73752)"
       x1="297.14285"
       y1="587.7193"
       x2="335.71429"
       y2="646.64789" />
    <radialGradient
       inkscape:collect="always"
       xlink:href="#id148"
       id="radialGradient2540"
       gradientUnits="userSpaceOnUse"
       gradientTransform="matrix(25.948174,-0.5895983,0.5375499,23.657531,-2516.2687,-351.21017)"
       cx="105.01967"
       cy="26.198133"
       fx="105.01967"
       fy="26.198133"
       r="5.2437" />
    <linearGradient
       inkscape:collect="always"
       xlink:href="#id148"
       id="linearGradient2544"
       gradientUnits="userSpaceOnUse"
       gradientTransform="translate(-51.708478,-366.34533)"
       x1="297.14285"
       y1="587.7193"
       x2="335.71429"
       y2="646.64789" />
    <radialGradient
       inkscape:collect="always"
       xlink:href="#id148"
       id="radialGradient2547"
       gradientUnits="userSpaceOnUse"
       gradientTransform="matrix(25.948174,-0.5895983,0.5375499,23.657531,-2516.2137,-261.81798)"
       cx="105.01967"
       cy="26.198133"
       fx="105.01967"
       fy="26.198133"
       r="5.2437" />
    <radialGradient
       inkscape:collect="always"
       xlink:href="#radialGradient51911"
       id="radialGradient2553"
       gradientUnits="userSpaceOnUse"
       gradientTransform="matrix(4.7203524e-2,3.1673769e-2,-2.8081097e-2,4.1849351e-2,101.42595,20.709098)"
       cx="100.4642"
       cy="18.291929"
       fx="100.4642"
       fy="18.291929"
       r="11.6412" />
    <radialGradient
       inkscape:collect="always"
       xlink:href="#id148"
       id="radialGradient2565"
       gradientUnits="userSpaceOnUse"
       gradientTransform="matrix(25.948174,-0.5895983,0.5375499,23.657531,-2514.527,-70.23157)"
       cx="105.01967"
       cy="26.198133"
       fx="105.01967"
       fy="26.198133"
       r="5.2437" />
    <linearGradient
       inkscape:collect="always"
       xlink:href="#id148"
       id="linearGradient2567"
       gradientUnits="userSpaceOnUse"
       gradientTransform="translate(-50.021805,-174.75892)"
       x1="297.14285"
       y1="587.7193"
       x2="335.71429"
       y2="646.64789" />
    <radialGradient
       inkscape:collect="always"
       xlink:href="#radialGradient51911"
       id="radialGradient2569"
       gradientUnits="userSpaceOnUse"
       gradientTransform="matrix(4.7203524e-2,3.1673769e-2,-2.8081097e-2,4.1849351e-2,101.42595,20.709098)"
       cx="100.4642"
       cy="18.291929"
       fx="100.4642"
       fy="18.291929"
       r="11.6412" />
    <radialGradient
       inkscape:collect="always"
       xlink:href="#id175"
       id="radialGradient2573"
       gradientUnits="userSpaceOnUse"
       gradientTransform="matrix(4.7203524e-2,3.1673769e-2,-2.8081097e-2,4.1849351e-2,101.42595,20.709098)"
       cx="100.4642"
       cy="18.291929"
       fx="100.4642"
       fy="18.291929"
       r="11.6412" />
    <radialGradient
       inkscape:collect="always"
       xlink:href="#radialGradient51911"
       id="radialGradient2575"
       gradientUnits="userSpaceOnUse"
       gradientTransform="matrix(4.7203524e-2,3.1673769e-2,-2.8081097e-2,4.1849351e-2,101.42595,20.709098)"
       cx="100.4642"
       cy="18.291929"
       fx="100.4642"
       fy="18.291929"
       r="11.6412" />
  </defs>
  <sodipodi:namedview
     id="base"
     pagecolor="#ffffff"
     bordercolor="#666666"
     borderopacity="1.0"
     inkscape:pageopacity="0.0"
     inkscape:pageshadow="2"
     inkscape:zoom="0.98994949"
     inkscape:cx="403.2475"
     inkscape:cy="538.84751"
     inkscape:document-units="px"
     inkscape:current-layer="layer1"
     showgrid="false"
     showguides="true"
     inkscape:guide-bbox="true"
     inkscape:window-width="1024"
     inkscape:window-height="1260"
     inkscape:window-x="-8"
     inkscape:window-y="-8">
    <sodipodi:guide
       orientation="1,0"
       position="226.27417,991.9698"
       id="guide2571" />
  </sodipodi:namedview>
  <metadata
     id="metadata7">
    <rdf:RDF>
      <cc:Work
         rdf:about="">
        <dc:format>image/svg+xml</dc:format>
        <dc:type
           rdf:resource="http://purl.org/dc/dcmitype/StillImage" />
        <dc:title></dc:title>
        <dc:date></dc:date>
        <dc:creator>
          <cc:Agent>
            <dc:title></dc:title>
          </cc:Agent>
        </dc:creator>
        <dc:rights>
          <cc:Agent>
            <dc:title></dc:title>
          </cc:Agent>
        </dc:rights>
        <dc:publisher>
          <cc:Agent>
            <dc:title></dc:title>
          </cc:Agent>
        </dc:publisher>
        <dc:identifier></dc:identifier>
        <dc:source></dc:source>
        <dc:relation></dc:relation>
        <dc:language></dc:language>
        <dc:subject>
          <rdf:Bag />
        </dc:subject>
        <dc:coverage></dc:coverage>
        <dc:description></dc:description>
        <dc:contributor>
          <cc:Agent>
            <dc:title></dc:title>
          </cc:Agent>
        </dc:contributor>
        <cc:license
           rdf:resource="" />
      </cc:Work>
    </rdf:RDF>
  </metadata>
  <g
     inkscape:label="Ebene 1"
     inkscape:groupmode="layer"
     id="layer1">
    <text
       x="327.53076"
       y="182.26068"
       id="_119467768"
       class="fil1 fnt3"
       style="font-size:71.38198853px;font-weight:bold;fill:#1f1a17;fill-rule:evenodd;font-family:Consolas">REC</text>
    <text
       x="327.44699"
       y="271.40643"
       id="_119467384"
       class="fil1 fnt3"
       style="font-size:71.38198853px;font-weight:bold;fill:#1f1a17;fill-rule:evenodd;font-family:Consolas">WAIT</text>
    <path
       id="_119467312"
       class="fil50"
       d="M 269.05871,205.6118 C 292.81219,205.6118 312.07233,224.87195 312.07233,248.62543 C 312.07233,272.37891 292.81219,291.63486 269.05871,291.63486 C 245.30523,291.63486 226.04927,272.37891 226.04927,248.62543 C 226.04927,224.87195 245.30523,205.6118 269.05871,205.6118 z M 269.05871,212.76677 C 288.85956,212.76677 304.91736,228.82457 304.91736,248.62543 C 304.91736,268.42209 288.85956,284.48408 269.05871,284.48408 C 249.26204,284.48408 233.20005,268.42209 233.20005,248.62543 C 233.20005,228.82457 249.26204,212.76677 269.05871,212.76677 z"
       style="fill:url(#radialGradient2547);fill-rule:evenodd" />
    <path
       id="_119467240"
       class="fil51"
       d="M 269.05871,217.78824 C 286.08476,217.78824 299.8959,231.59938 299.8959,248.62543 C 299.8959,265.65148 286.08476,279.45842 269.05871,279.45842 C 252.03266,279.45842 238.22571,265.65148 238.22571,248.62543 C 238.22571,231.59938 252.03266,217.78824 269.05871,217.78824 z M 269.05871,212.26797 C 289.1362,212.26797 305.41616,228.54793 305.41616,248.62543 C 305.41616,268.69873 289.1362,284.97869 269.05871,284.97869 C 248.9854,284.97869 232.70545,268.69873 232.70545,248.62543 C 232.70545,228.54793 248.9854,212.26797 269.05871,212.26797 z"
       style="fill:url(#linearGradient2544);fill-opacity:1;fill-rule:evenodd" />
    <circle
       id="_119467168"
       class="fil53"
       cx="106.12"
       cy="25.066799"
       r="0.76576298"
       style="fill:url(#radialGradient2575);fill-opacity:1;fill-rule:evenodd"
       sodipodi:cx="106.12"
       sodipodi:cy="25.066799"
       sodipodi:rx="0.76576298"
       sodipodi:ry="0.76576298"
       transform="matrix(41.915439,0,0,41.915439,-4179.0076,-802.0605)" />
    <path
       id="path51998"
       class="fil50"
       d="M 269.00372,116.2196 C 292.7572,116.2196 312.01734,135.47975 312.01734,159.23323 C 312.01734,182.98671 292.7572,202.24266 269.00372,202.24266 C 245.25024,202.24266 225.99428,182.98671 225.99428,159.23323 C 225.99428,135.47975 245.25024,116.2196 269.00372,116.2196 z M 269.00372,123.37457 C 288.80457,123.37457 304.86237,139.43237 304.86237,159.23323 C 304.86237,179.02989 288.80457,195.09188 269.00372,195.09188 C 249.20705,195.09188 233.14506,179.02989 233.14506,159.23323 C 233.14506,139.43237 249.20705,123.37457 269.00372,123.37457 z"
       style="fill:url(#radialGradient2540);fill-rule:evenodd" />
    <path
       id="path52000"
       class="fil51"
       d="M 269.00372,128.39604 C 286.02977,128.39604 299.84091,142.20718 299.84091,159.23323 C 299.84091,176.25928 286.02977,190.06622 269.00372,190.06622 C 251.97767,190.06622 238.17072,176.25928 238.17072,159.23323 C 238.17072,142.20718 251.97767,128.39604 269.00372,128.39604 z M 269.00372,122.87577 C 289.08121,122.87577 305.36117,139.15573 305.36117,159.23323 C 305.36117,179.30653 289.08121,195.58649 269.00372,195.58649 C 248.93041,195.58649 232.65046,179.30653 232.65046,159.23323 C 232.65046,139.15573 248.93041,122.87577 269.00372,122.87577 z"
       style="fill:url(#linearGradient2537);fill-opacity:1;fill-rule:evenodd" />
    <circle
       id="circle52002"
       class="fil53"
       cx="106.12"
       cy="25.066799"
       r="0.76576298"
       style="fill:url(#radialGradient2573);fill-opacity:1;fill-rule:evenodd"
       sodipodi:cx="106.12"
       sodipodi:cy="25.066799"
       sodipodi:rx="0.76576298"
       sodipodi:ry="0.76576298"
       transform="matrix(41.915439,0,0,41.915439,-4179.0626,-891.4527)" />
    <text
       x="328.6926"
       y="366.17441"
       id="text2435"
       class="fil1 fnt3"
       style="font-size:71.38198853px;font-weight:bold;fill:#1f1a17;fill-rule:evenodd;font-family:Consolas">WAIT</text>
    <path
       id="path2437"
       class="fil50"
       d="M 270.30431,300.37978 C 294.05779,300.37978 313.31793,319.63993 313.31793,343.39341 C 313.31793,367.14689 294.05779,386.40284 270.30431,386.40284 C 246.55083,386.40284 227.29487,367.14689 227.29487,343.39341 C 227.29487,319.63993 246.55083,300.37978 270.30431,300.37978 z M 270.30431,307.53475 C 290.10516,307.53475 306.16296,323.59255 306.16296,343.39341 C 306.16296,363.19007 290.10516,379.25206 270.30431,379.25206 C 250.50764,379.25206 234.44565,363.19007 234.44565,343.39341 C 234.44565,323.59255 250.50764,307.53475 270.30431,307.53475 z"
       style="fill:url(#radialGradient2532);fill-rule:evenodd" />
    <path
       id="path2439"
       class="fil51"
       d="M 270.30431,312.55622 C 287.33036,312.55622 301.1415,326.36736 301.1415,343.39341 C 301.1415,360.41946 287.33036,374.2264 270.30431,374.2264 C 253.27826,374.2264 239.47131,360.41946 239.47131,343.39341 C 239.47131,326.36736 253.27826,312.55622 270.30431,312.55622 z M 270.30431,307.03595 C 290.3818,307.03595 306.66176,323.31591 306.66176,343.39341 C 306.66176,363.46671 290.3818,379.74667 270.30431,379.74667 C 250.231,379.74667 233.95105,363.46671 233.95105,343.39341 C 233.95105,323.31591 250.231,307.03595 270.30431,307.03595 z"
       style="fill:url(#linearGradient2529);fill-opacity:1;fill-rule:evenodd" />
    <circle
       id="circle2441"
       class="fil53"
       cx="106.12"
       cy="25.066799"
       r="0.76576298"
       style="fill:url(#radialGradient2553);fill-opacity:1;fill-rule:evenodd"
       sodipodi:cx="106.12"
       sodipodi:cy="25.066799"
       sodipodi:rx="0.76576298"
       sodipodi:ry="0.76576298"
       transform="matrix(41.915439,0,0,41.915439,-4177.762,-707.29252)" />
    <path
       style="fill:#ffffff;fill-opacity:1;stroke:none;stroke-opacity:1"
       d="M 267.18111,372.66983 C 267.18111,371.89921 268.40214,370.68743 269.89451,369.97697 C 275.80372,367.16381 281.24354,358.3019 281.24354,351.48847 C 281.24354,347.68416 281.24077,347.68092 277.98355,347.68092 C 273.92543,347.68092 273.09069,346.30488 275.42868,343.46934 C 277.51891,340.93425 278.3975,340.09891 273.19342,339.23978 L 268.15668,339.10827 L 260.51609,348.1071 C 256.3138,353.05645 252.5785,357.10592 252.21545,357.10592 C 251.85238,357.10592 249.98111,355.19222 248.05701,352.85324 C 245.41469,349.64114 245.68108,349.95884 244.64016,348.986 C 243.48471,347.90612 243.76114,348.11976 242.98938,347.26412 C 241.94395,346.10508 242.47863,346.79319 241.26008,344.86546 C 240.15983,343.12489 239.05624,341.0656 239.05624,340.06861 C 239.05624,338.54857 239.65721,338.25593 242.77865,338.25593 C 246.08609,338.25593 246.50157,338.01952 246.50568,336.1353 C 246.52492,327.2872 252.96044,318.7423 262.8319,314.4578 C 269.92068,311.38105 271.74963,311.22107 271.91109,313.66356 C 271.98814,314.82889 271.18447,315.86023 269.62631,316.5956 C 265.74876,318.42561 260.82381,325.2505 259.37805,330.79749 C 257.3605,338.53832 257.11271,338.25298 265.78324,338.17373 C 270.01898,338.13503 274.79672,338.38383 276.40046,338.72663 C 279.12613,339.30924 279.56272,339.03761 283.09471,334.56165 C 285.17281,331.92812 287.42338,329.77342 288.09595,329.77342 C 289.52628,329.77342 301.91574,344.76624 301.92042,346.5028 C 301.92227,347.18989 300.86662,347.68092 299.38761,347.68092 C 295.63979,347.68092 293.65438,349.23704 293.63341,352.19095 C 293.58248,359.36207 286.39961,368.67274 278.23218,372.1545 C 272.7997,374.47036 267.18111,374.73235 267.18111,372.66983 z M 282.16062,359.88522 C 298.90892,336.49784 288.83978,353.578 290.32176,351.09634 C 293.38559,345.9658 292.65473,345.30119 295.24638,344.85342 L 297.97391,344.38217 L 282.65076,350.25149 C 279.91777,346.88205 289.66218,345.98479 289.00434,344.24238 C 287.77472,340.98553 292.22725,340.78172 289.27232,344.27958 C 284.00481,350.51497 303.2099,337.44186 288.34962,355.07892 C 271.0796,375.576 284.8237,346.09096 284.13436,351.39693 C 283.29645,357.84641 280.55943,364.3075 277.27218,367.59606 C 274.74182,370.12739 274.10852,368.54353 275.83753,367.95051 C 276.94068,367.57215 271.28185,368.26116 282.16062,359.88522 z M 257.41349,340.12169 L 262.35219,341.55467 L 256.06109,345.37658 C 253.46615,344.93279 254.30045,353.01521 254.05398,342.1172 C 253.87741,334.30995 260.61842,319.64398 267.09866,315.5304 C 269.97655,313.70354 270.97919,315.89861 265.67486,318.02993 C 261.12441,319.85836 259.1929,327.48027 257.31892,330.93506 C 256.30015,332.81321 256.43229,341.30713 255.91493,344.4089 L 253.71158,345.12404 L 250.40914,345.12404 L 253.54641,344.11389 L 252.18317,337.99203 C 255.11413,341.36147 254.48789,329.59735 254.80408,329.59735 C 255.12027,329.59735 254.83611,343.36154 257.41349,340.12169 z"
       id="path2417"
       sodipodi:nodetypes="csssscccssssssssssssssssssssccscccssssssccccsssscccccsc" />
    <text
       x="329.13367"
       y="462.99286"
       id="text2555"
       class="fil1 fnt3"
       style="font-size:71.38198853px;font-weight:bold;fill:#1f1a17;fill-rule:evenodd;font-family:Consolas">WAIT</text>
    <path
       id="path2557"
       class="fil50"
       d="M 270.74538,397.19821 C 294.49886,397.19821 313.759,416.45836 313.759,440.21184 C 313.759,463.96532 294.49886,483.22127 270.74538,483.22127 C 246.9919,483.22127 227.73594,463.96532 227.73594,440.21184 C 227.73594,416.45836 246.9919,397.19821 270.74538,397.19821 z M 270.74538,404.35318 C 290.54623,404.35318 306.60403,420.41098 306.60403,440.21184 C 306.60403,460.0085 290.54623,476.07049 270.74538,476.07049 C 250.94871,476.07049 234.88672,460.0085 234.88672,440.21184 C 234.88672,420.41098 250.94871,404.35318 270.74538,404.35318 z"
       style="fill:url(#radialGradient2565);fill-rule:evenodd" />
    <path
       id="path2559"
       class="fil51"
       d="M 270.74538,409.37465 C 287.77143,409.37465 301.58257,423.18579 301.58257,440.21184 C 301.58257,457.23789 287.77143,471.04483 270.74538,471.04483 C 253.71933,471.04483 239.91238,457.23789 239.91238,440.21184 C 239.91238,423.18579 253.71933,409.37465 270.74538,409.37465 z M 270.74538,403.85438 C 290.82287,403.85438 307.10283,420.13434 307.10283,440.21184 C 307.10283,460.28514 290.82287,476.5651 270.74538,476.5651 C 250.67207,476.5651 234.39212,460.28514 234.39212,440.21184 C 234.39212,420.13434 250.67207,403.85438 270.74538,403.85438 z"
       style="fill:url(#linearGradient2567);fill-opacity:1;fill-rule:evenodd" />
    <circle
       id="circle2561"
       class="fil53"
       cx="106.12"
       cy="25.066799"
       r="0.76576298"
       style="fill:url(#radialGradient2569);fill-opacity:1;fill-rule:evenodd"
       sodipodi:cx="106.12"
       sodipodi:cy="25.066799"
       sodipodi:rx="0.76576298"
       sodipodi:ry="0.76576298"
       transform="matrix(41.915439,0,0,41.915439,-4177.3209,-610.47409)" />
    <text
       xml:space="preserve"
       style="font-size:80.31673431px;font-style:normal;font-variant:normal;font-weight:bold;font-stretch:normal;text-align:start;line-height:125%;writing-mode:lr-tb;text-anchor:start;fill:#ffffff;fill-opacity:1;stroke:none;stroke-width:1px;stroke-linecap:butt;stroke-linejoin:miter;stroke-opacity:1;font-family:Consolas;-inkscape-font-specification:Consolas Bold"
       x="249.37035"
       y="461.85126"
       id="text2577"
       sodipodi:linespacing="125%"><tspan
         sodipodi:role="line"
         id="tspan2579"
         x="249.37035"
         y="461.85126">A</tspan></text>
  </g>
</svg>
